<?xml version="1.0" standalone="no"?>
<!DOCTYPE svg PUBLIC "-//W3C//DTD SVG 20010904//EN"
 "http://www.w3.org/TR/2001/REC-SVG-20010904/DTD/svg10.dtd">
<svg version="1.0" xmlns="http://www.w3.org/2000/svg" width="310pt"
  height="197.000000pt" style="background-color: white" viewBox="0 0 847.000000 197.000000"
 preserveAspectRatio="xMidYMid meet">
<metadata>
Created by potrace 1.15, written by Peter Selinger 2001-2017
</metadata>
  <circle class="donut-ring" cx="300" cy="94" r="220" fill="none" stroke="#f8e502"
    stroke-width="45"></circle>
  <circle class="donut-segment" cx="300" cy="94" r="220" fill="none" stroke="#ef641d"
    stroke-width="45" stroke-dasharray="370 700" stroke-dashoffset="25"></circle>
  <rect fill="#ef641d" x="650" y="44" width="40" height="40"></rect>
  <rect fill="#f8e502" x="650" y="104" width="40" height="40"></rect>
  <g transform="translate(710, 80), scale(3, 3)">
    <text fill="#35484f" x="0" y="0" class="target">Да</text>
  </g>
  <g transform="translate(710,140), scale(3, 3)">
    <text fill="#35484f" x="0" y="0" class="target">Нет</text>
  </g>







  <g transform="translate(-75.000000,450.000000) scale(0.100000,-0.100000)"
  fill="#e93615" stroke="none">
  <path d="M2787 4616 c-44 -69 -142 -344 -157 -439 -17 -111 -2 -176 53 -231
  44 -43 141 -98 245 -137 73 -28 70 -11 41 -224 -11 -82 -24 -186 -29 -230 -21
  -184 -49 -385 -55 -395 -20 -32 27 -68 140 -105 86 -28 239 -55 316 -55 51 0
  57 2 62 23 47 204 69 294 76 305 6 10 24 7 82 -16 65 -26 155 -49 257 -66 l33
  -6 -3 304 c-2 168 -6 307 -9 310 -3 4 -34 11 -69 18 -101 17 -100 14 -100 253
  l0 205 -22 1 c-13 1 -32 1 -44 0 -35 -3 -72 17 -87 46 -8 17 -17 75 -20 143
  -8 143 -19 185 -66 231 -52 52 -138 70 -356 75 -93 3 -194 6 -222 8 -45 2 -55
  -1 -66 -18z"/>
  </g>
  <g transform="translate(-75.000000,450.000000) scale(0.100000,-0.100000)"
  fill="#fbe301" stroke="none">
  <path d="M2640 4777 c-55 -19 -80 -96 -42 -130 31 -28 102 -36 367 -41 279 -6
  367 -17 428 -55 56 -35 68 -66 78 -216 5 -73 13 -144 18 -157 14 -36 58 -68
  95 -68 17 0 36 -4 43 -8 8 -5 12 -67 15 -199 3 -192 3 -193 29 -219 20 -20 41
  -28 90 -34 35 -4 70 -5 77 -3 9 4 12 62 12 244 l0 239 -22 5 c-13 3 -59 6
  -103 7 l-80 3 -6 170 c-5 135 -11 184 -29 239 -42 131 -148 207 -315 226 -128
  14 -611 12 -655 -3z"/>
  <path d="M4545 4138 c-11 -6 -34 -25 -52 -42 l-32 -32 81 -74 c61 -56 88 -89
  109 -134 35 -76 59 -218 65 -391 l4 -130 38 -17 c79 -37 198 -9 252 59 21 26
  22 35 16 128 -8 131 -32 336 -48 403 -20 90 -63 151 -134 187 -34 18 -82 37
  -107 43 -58 15 -166 15 -192 0z"/>
  </g>
  <g transform="translate(-75.000000,460.000000) scale(0.100000,-0.100000)"
  fill="#094063" stroke="none">
  <path d="M3119 4511 c-25 -25 -30 -37 -25 -59 15 -60 79 -80 121 -37 43 42 23
  106 -37 121 -22 5 -34 0 -59 -25z"/>
  <path d="M4945 3101 c-27 -4 -61 -13 -74 -20 -13 -7 -60 -19 -105 -26 -44 -7
  -133 -29 -196 -50 -63 -20 -141 -41 -173 -46 -33 -5 -82 -15 -110 -23 -56 -15
  -218 -33 -361 -40 -58 -3 -92 -9 -98 -18 -5 -7 -6 -75 -3 -153 4 -77 8 -174 9
  -215 1 -41 3 -83 4 -93 2 -18 13 -19 195 -15 157 3 198 7 222 21 22 12 54 17
  120 17 60 0 99 5 119 15 15 8 41 15 57 15 15 0 48 6 71 14 24 8 61 17 83 21
  22 3 60 13 85 21 25 7 92 28 150 45 122 36 160 54 217 103 58 51 83 107 83
  189 0 95 -35 161 -114 219 -41 30 -72 33 -181 19z"/>
  </g>
  <g transform="translate(-75.000000,450.000000) scale(0.100000,-0.100000)"
  fill="#135970" stroke="none">
  <path d="M2595 2998 c-39 -22 -147 -122 -161 -149 -17 -33 -18 -79 -3 -134 8
  -30 30 -59 88 -115 88 -84 52 -70 426 -166 254 -66 518 -106 771 -119 l131 -7
  6 23 c4 13 7 124 7 247 l0 222 -117 0 c-65 0 -161 5 -213 10 -52 5 -124 12
  -160 15 -210 18 -351 47 -451 93 -170 78 -209 92 -263 92 -22 0 -50 -6 -61
  -12z"/>
  </g>
  <g transform="translate(-75.000000,450.000000) scale(0.100000,-0.100000)"
  fill="#ff8c13" stroke="none">
  <path d="M3843 4134 c-8 -4 -12 -71 -13 -248 l-1 -244 33 -4 c18 -3 78 -2 133
  2 108 8 156 25 177 63 12 23 23 121 34 320 l7 117 -179 -1 c-98 0 -184 -3
  -191 -5z"/>
  </g>
  <g transform="translate(-75.000000,450.000000) scale(0.100000,-0.100000)"
  fill="#cf0011" stroke="none">
  <path d="M4181 3953 c-7 -104 -17 -203 -23 -221 -15 -51 -53 -65 -201 -71
  l-128 -6 0 -300 c0 -257 2 -300 15 -303 40 -9 193 29 261 64 40 21 79 35 88
  31 9 -3 21 -25 27 -49 23 -89 81 -266 94 -283 13 -18 17 -18 118 -1 138 22
  192 39 250 79 72 49 84 109 68 373 -23 413 -40 525 -90 625 -31 59 -172 184
  -235 208 -54 20 -157 41 -206 41 l-26 0 -12 -187z"/>
  </g>
</svg>
