<?xml version="1.0" standalone="no"?>
<!DOCTYPE svg PUBLIC "-//W3C//DTD SVG 20010904//EN"
 "http://www.w3.org/TR/2001/REC-SVG-20010904/DTD/svg10.dtd">
<svg version="1.0" xmlns="http://www.w3.org/2000/svg"
 width="847.000000pt" height="197.000000pt" viewBox="0 0 847.000000 197.000000"
 preserveAspectRatio="xMidYMid meet">
<metadata>
Created by potrace 1.15, written by Peter Selinger 2001-2017
</metadata>
 <g transform="translate(40.000000,208.000000) scale(0.095,-0.109000)" fill="#ececec" stroke="none">
            <path d="M2573 1783 c-1665 -3 -1883 -5 -1883 -18 0 -11 12 -15 46 -15 l47 0
       -7 -77 c-3 -42 -6 -98 -6 -125 l0 -48 -50 0 c-38 0 -50 -4 -50 -15 0 -11 12
       -15 50 -15 l50 0 0 -120 0 -120 -45 0 c-33 0 -45 -4 -45 -15 0 -11 12 -15 45
       -15 l45 0 0 -130 0 -130 -55 0 c-42 0 -55 -3 -55 -15 0 -12 13 -15 55 -15 l55
       0 0 -130 0 -130 -55 0 c-42 0 -55 -3 -55 -15 0 -11 12 -15 50 -15 l50 0 0
       -165 c0 -140 2 -165 15 -165 9 0 15 9 15 25 l0 25 360 0 c353 0 360 0 360 -20
       0 -11 7 -20 15 -20 8 0 15 9 15 20 0 20 7 20 360 20 313 0 360 -2 360 -15 0
       -8 7 -15 15 -15 8 0 15 7 15 15 0 13 46 15 350 15 304 0 350 -2 350 -15 0 -8
       7 -15 15 -15 8 0 15 7 15 15 0 13 46 15 350 15 227 0 350 -4 350 -10 0 -5 7
       -10 15 -10 8 0 15 5 15 10 0 6 127 10 360 10 l360 0 0 -30 c0 -20 5 -30 15
       -30 10 0 15 10 15 28 l0 29 197 6 c108 4 267 7 355 7 151 0 158 -1 158 -20 0
       -11 7 -20 15 -20 8 0 15 9 15 20 0 20 7 20 355 20 l355 0 0 -25 c0 -16 6 -25
       15 -25 9 0 15 9 15 25 l0 25 350 0 350 0 0 -30 c0 -20 5 -30 15 -30 10 0 15
       10 15 30 l0 30 360 0 360 0 0 -35 c0 -24 5 -35 15 -35 10 0 15 11 15 35 l0 35
       360 0 360 0 0 -40 c0 -27 4 -40 13 -40 16 0 27 481 27 1143 l0 377 -1882 -2
       c-1036 -2 -2730 -4 -3765 -5z m5623 -90 c-3 -42 -6 -100 -6 -130 l0 -53 -360
       0 -360 0 0 125 0 125 358 3 c196 1 361 3 366 5 5 1 6 -31 2 -75z m-4459 0 c-4
       -38 -7 -96 -7 -130 l0 -63 -355 0 -355 0 0 125 0 124 98 4 c53 1 216 4 361 5
       l264 2 -6 -67z m743 -63 l0 -130 -360 0 -360 0 0 130 0 130 360 0 360 0 0
       -130z m740 0 l0 -130 -355 0 -355 0 0 130 0 130 355 0 355 0 0 -130z m730 0
       l0 -130 -355 0 -355 0 0 130 0 130 355 0 355 0 0 -130z m730 7 l0 -124 -227
       -6 c-124 -4 -282 -7 -350 -7 l-123 0 0 130 0 130 350 0 350 0 0 -123z m760 -2
       l0 -125 -365 0 -365 0 0 125 0 125 365 0 365 0 0 -125z m-5914 38 c-3 -42 -6
       -98 -6 -125 l0 -48 -360 0 -360 0 0 125 0 125 366 0 367 0 -7 -77z m724 -48
       l0 -125 -350 0 -350 0 0 125 0 125 350 0 350 0 0 -125z m740 0 l0 -125 -355 0
       -355 0 0 125 0 125 355 0 355 0 0 -125z m2226 -237 c-3 -50 -6 -108 -6 -130
       l0 -38 -350 0 -350 0 0 125 0 124 98 4 c53 1 214 4 356 5 l259 2 -7 -92z m734
       -38 l0 -130 -355 0 -355 0 0 130 0 130 355 0 355 0 0 -130z m730 0 l0 -130
       -350 0 -350 0 0 130 0 130 350 0 350 0 0 -130z m760 0 l0 -130 -365 0 -365 0
       0 130 0 130 365 0 365 0 0 -130z m750 0 l0 -130 -360 0 -360 0 0 130 0 130
       360 0 360 0 0 -130z m-6670 0 l0 -120 -360 0 -360 0 0 120 0 120 360 0 360 0
       0 -120z m730 0 l0 -120 -350 0 -350 0 0 120 0 120 350 0 350 0 0 -120z m740 0
       l0 -120 -355 0 -355 0 0 120 0 120 355 0 355 0 0 -120z m740 0 l0 -120 -355 0
       -355 0 0 120 0 120 355 0 355 0 0 -120z m750 -5 l0 -125 -157 0 c-87 0 -249 3
       -360 7 l-203 6 0 119 0 118 360 0 360 0 0 -125z m-2960 -275 l0 -130 -360 0
       -360 0 0 130 0 130 360 0 360 0 0 -130z m730 -5 l0 -135 -183 0 c-101 0 -259
       3 -350 7 l-167 6 0 129 0 128 350 0 350 0 0 -135z m740 0 l0 -135 -355 0 -355
       0 0 135 0 135 355 0 355 0 0 -135z m740 0 l0 -135 -355 0 -355 0 0 135 0 135
       355 0 355 0 0 -135z m750 0 l0 -135 -360 0 -360 0 0 135 0 135 360 0 360 0 0
       -135z m730 0 l0 -135 -356 0 -356 0 6 31 c3 17 6 78 6 135 l0 104 350 0 350 0
       0 -135z m740 0 l0 -135 -355 0 -355 0 0 135 0 135 355 0 355 0 0 -135z m730 0
       l0 -135 -350 0 -350 0 0 135 0 135 350 0 350 0 0 -135z m760 -5 l0 -140 -192
       0 c-106 0 -271 3 -365 7 l-173 6 0 134 0 133 365 0 365 0 0 -140z m750 0 l0
       -140 -366 0 -367 0 7 38 c3 20 6 83 6 140 l0 102 360 0 360 0 0 -140z m-6672
       -277 l-3 -128 -362 -3 -363 -2 0 32 c0 18 3 77 7 131 l6 97 359 0 359 0 -3
       -127z m742 -3 l0 -130 -360 0 -360 0 0 38 c0 22 3 80 6 130 l7 92 353 0 354 0
       0 -130z m730 0 l0 -130 -350 0 -350 0 0 48 c0 26 -3 84 -7 130 l-6 82 357 0
       356 0 0 -130z m507 120 l233 0 0 -102 c0 -57 -3 -113 -6 -125 l-6 -23 -349 0
       -349 0 0 132 0 131 122 -6 c66 -4 226 -7 355 -7z m979 -92 c-3 -50 -6 -108 -6
       -130 l0 -38 -163 0 c-90 0 -252 3 -360 7 l-197 6 0 47 c0 26 3 81 6 123 l7 77
       360 0 360 0 -7 -92z m734 -38 l0 -130 -355 0 -355 0 0 130 0 130 355 0 355 0
       0 -130z m740 0 l0 -130 -355 0 -355 0 0 130 0 130 355 0 355 0 0 -130z m730 0
       l0 -130 -350 0 -350 0 0 130 0 130 350 0 350 0 0 -130z m756 38 c-3 -50 -6
       -108 -6 -130 l0 -38 -360 0 -360 0 0 130 0 130 366 0 367 0 -7 -92z m752 -35
       l-3 -128 -362 -3 -363 -2 0 130 0 130 365 0 366 0 -3 -127z m-6678 -278 l0
       -125 -360 0 -360 0 0 125 0 125 360 0 360 0 0 -125z m750 0 l0 -125 -360 0
       -360 0 0 125 0 125 360 0 360 0 0 -125z m730 0 l0 -125 -350 0 -350 0 0 125 0
       125 350 0 350 0 0 -125z m730 0 l0 -125 -350 0 -350 0 0 125 0 125 350 0 350
       0 0 -125z m750 0 l0 -125 -360 0 -360 0 0 125 0 125 360 0 360 0 0 -125z m740
       0 l0 -125 -355 0 -355 0 0 125 0 125 355 0 355 0 0 -125z m740 0 l0 -125 -355
       0 -355 0 0 125 0 125 355 0 355 0 0 -125z m730 7 l0 -119 -197 -6 c-108 -4
       -265 -7 -350 -7 l-153 0 0 125 0 125 350 0 350 0 0 -118z m750 -2 l0 -120
       -360 0 -360 0 0 120 0 120 360 0 360 0 0 -120z m750 0 l0 -120 -360 0 -360 0
       0 120 0 120 360 0 360 0 0 -120z" />
          </g>
          <g transform="translate(40.000000,0) scale(0.95,1)">
            <rect fill="rgba(228, 206, 209, 0.5)" stroke="#dab4bd" width="350" height="19" y="23" x="79"></rect>
            <rect fill="rgba(180, 214, 235, 0.5)" stroke="#b4d6eb" width="310" height="19" y="52" x="79"></rect>
            <rect fill="rgba(234, 226, 191, 0.5)" stroke="#eae2bf" width="10" height="19" y="80" x="79"></rect>
            <rect fill="rgba(203, 225, 219, 0.5)" stroke="#cbe1db" width="13" height="19" y="108" x="79"></rect>
            <rect fill="rgba(199, 188, 214, 0.5)" stroke="#c7bcd6" width="74" height="19" y="138" x="79"></rect>
          </g>
          <g fill="#465a63" transform="translate(40.000000,0) scale(0.95,1)">
            <text x="70" y="190">0</text>
            <text x="143" y="190">200</text>
            <text x="216" y="190">400</text>
            <text x="289" y="190">600</text>
            <text x="362" y="190">800</text>
            <text x="435" y="190">1000</text>
            <text x="508" y="190">1200</text>
            <text x="581" y="190">1400</text>
            <text x="654" y="190">1600</text>
            <text x="727" y="190">1800</text>
            <text x="800" y="190">2000</text>
          </g>
          <g fill="#465a63" transform="scale(0.9, 0.9)">
            <text x="50" y="41">Всего</text>
            <text x="33" y="74">Закрыто</text>
            <text x="30" y="103">В работе</text>
            <text x="40" y="135">Новый</text>
            <text x="14" y="168">Просрочен</text>
          </g>
</svg>
