<?xml version="1.0" standalone="no"?>
<!DOCTYPE svg PUBLIC "-//W3C//DTD SVG 20010904//EN"
 "http://www.w3.org/TR/2001/REC-SVG-20010904/DTD/svg10.dtd">
<svg version="1.0" xmlns="http://www.w3.org/2000/svg"
 width="200.000000pt" height="248.000000pt" viewBox="0 0 200.000000 248.000000"
 preserveAspectRatio="xMidYMid meet">
<metadata>
Created by potrace 1.15, written by Peter Selinger 2001-2017
</metadata>
<g transform="translate(0.000000,248.000000) scale(0.100000,-0.100000)"
fill="#000000" stroke="none">
<path d="M230 2433 c-8 -3 -27 -17 -42 -31 l-28 -26 0 -437 0 -438 37 -28 36
-28 270 -3 c314 -3 287 5 413 -131 94 -100 125 -106 158 -31 9 19 42 63 74 98
l59 62 266 0 265 0 31 36 32 35 -3 434 -3 434 -29 30 -30 31 -745 -1 c-410 0
-753 -3 -761 -6z"/>
<path d="M910 1000 c-98 -14 -192 -85 -244 -184 -24 -45 -26 -59 -26 -171 0
-114 2 -124 25 -156 13 -19 36 -51 50 -71 28 -42 73 -74 155 -109 78 -34 182
-31 265 7 79 36 171 129 181 181 4 21 13 50 20 65 8 15 14 57 14 93 0 55 -6
78 -36 141 -20 42 -53 93 -73 113 -78 78 -197 111 -331 91z m142 -254 c22 -13
48 -66 48 -98 0 -52 -66 -118 -119 -118 -31 0 -92 40 -102 67 -25 66 6 145 63
162 36 10 82 5 110 -13z"/>
</g>
</svg>
