<?xml version="1.0" standalone="no"?>
<!DOCTYPE svg PUBLIC "-//W3C//DTD SVG 20010904//EN"
 "http://www.w3.org/TR/2001/REC-SVG-20010904/DTD/svg10.dtd">
 <svg class="chart-zone__waves" version="1.0" xmlns="http://www.w3.org/2000/svg" width="1254.000000pt"
          height="468.000000pt" viewBox="0 0 1254.000000 468.000000" preserveAspectRatio="xMidYMid meet">
          <metadata>
            Created by potrace 1.15, written by Peter Selinger 2001-2017
          </metadata>
          <g fill="#35484f" transform="scale(1.5, 1.5)">
            <text x="13" y="35">Wavy lynes</text>
          </g>
          <g fill="#465a63">
            <text x="20" y="75">Working House</text>
          </g>
          <g fill="#465a63">
            <text x="20" y="127">60</text>
            <text x="20" y="197">50</text>
            <text x="20" y="267">40</text>
            <text x="20" y="337">20</text>
            <text x="20" y="407">0</text>
          </g>
          <g fill="#465a63">
            <text x="50" y="440">30.05</text>
            <text x="163" y="440">31.05</text>
            <text x="276" y="440">01.06</text>
            <text x="389" y="440">02.06</text>
            <text x="502" y="440">03.06</text>
            <text x="615" y="440">04.06</text>
            <text x="728" y="440">05.06</text>
            <text x="841" y="440">06.06</text>
            <text x="954" y="440">07.06</text>
            <text x="1067" y="440">08.06</text>
            <text x="1180" y="440">09.06</text>
          </g>
          <g transform="translate(0.000000,468.000000) scale(0.100000,-0.100000)" fill="#dedede" stroke="none">
            <path d="M540 3467 c0 -13 393 -15 3233 -21 1777 -3 4396 -9 5820 -12 2300 -6
2587 -5 2587 8 0 14 -479 16 -4287 22 -2359 3 -4978 9 -5820 12 -1347 5 -1533
4 -1533 -9z" />
            <path d="M540 3128 c0 -17 1088 -21 8143 -34 3103 -6 3497 -5 3497 8 0 13
-532 16 -4682 22 -2576 3 -5195 9 -5820 12 -1008 6 -1138 5 -1138 -8z" />
            <path d="M540 2786 c0 -10 649 -14 3002 -19 4241 -10 8638 -9 8638 2 0 11
-2647 20 -7672 25 -3119 3 -3968 1 -3968 -8z" />
            <path d="M540 2445 c0 -13 44 -15 323 -15 177 0 2718 -7 5647 -15 2929 -8
5403 -15 5498 -15 146 0 172 2 172 15 0 13 -69 15 -562 15 -795 0 -8002 18
-9680 24 -1233 5 -1398 4 -1398 -9z" />
            <path d="M540 2075 c0 -9 772 -13 3353 -18 4680 -10 8287 -9 8287 2 0 14
-1715 21 -6802 24 -3734 3 -4838 1 -4838 -8z" />
            <path d="M8295 1739 c-2057 -3 -4643 -7 -5747 -8 -1804 -1 -2008 -3 -2008 -16
0 -14 411 -15 4137 -10 6035 8 7503 14 7503 31 0 11 -17 14 -72 12 -40 -1
-1756 -5 -3813 -9z" />
            <path d="M5775 1389 c-1496 -3 -3286 -7 -3977 -8 -1162 -1 -1258 -2 -1258 -18
0 -15 143 -16 1983 -10 1090 4 3424 9 5187 12 3398 6 4470 12 4470 26 0 10
-1956 9 -6405 -2z" />
            <path d="M5875 1049 c-1457 -3 -3254 -7 -3992 -8 -1244 -1 -1343 -2 -1343 -18
0 -15 134 -16 1893 -10 1040 4 3550 9 5577 12 3637 5 4170 9 4170 26 0 10
-1961 9 -6305 -2z" />
          </g>
          <g fill-opacity="0.7" transform="translate(0.000000,468.000000) scale(0.100000,-0.100000)" fill="#d7abde"
            stroke="none">
            <path d="M6540 3121 c-90 -30 -203 -84 -364 -175 -54 -31 -101 -56 -103 -56
       -3 0 -96 -76 -207 -168 -569 -475 -624 -507 -969 -567 -127 -23 -158 -18 -375
       57 -334 114 -419 161 -594 324 -172 161 -232 194 -432 235 -154 32 -202 35
       -292 18 -140 -26 -245 -113 -399 -332 l-90 -128 -121 -78 c-238 -154 -360
       -192 -516 -157 -163 36 -245 96 -580 422 -136 133 -276 261 -309 283 -82 55
       -144 73 -272 78 -88 4 -117 2 -155 -12 -56 -22 -120 -79 -178 -161 l-44 -61 0
       -997 0 -996 5820 0 5820 0 0 900 0 900 -77 61 c-236 188 -354 239 -545 239
       -202 -1 -315 -37 -491 -158 -45 -30 -84 -58 -87 -62 -3 -3 -68 -64 -144 -133
       -157 -144 -222 -190 -316 -226 -58 -23 -80 -25 -200 -26 -130 0 -137 1 -200
       31 -123 58 -163 95 -242 222 -83 134 -192 250 -305 324 -139 93 -216 112 -343
       83 -41 -9 -88 -20 -104 -22 -32 -6 -220 -121 -301 -184 -27 -21 -111 -98 -185
       -170 -130 -127 -228 -202 -326 -250 -38 -18 -69 -23 -168 -27 -104 -4 -129 -1
       -179 16 -158 56 -454 305 -669 563 -120 145 -387 349 -515 396 -83 30 -139 29
       -243 -6z" />
          </g>
          <g fill-opacity="0.7" transform="translate(0.000000,468.000000) scale(0.100000,-0.100000)" fill="#ea468d"
            stroke="none">
            <path d="M11920 2899 c-141 -24 -263 -104 -355 -234 -52 -72 -175 -273 -175
-285 0 -13 -99 -231 -137 -300 -48 -89 -93 -142 -172 -201 -82 -63 -228 -135
-299 -149 -97 -18 -250 15 -421 92 -151 68 -261 149 -521 384 -307 279 -372
330 -495 391 -156 79 -392 127 -585 121 -112 -4 -137 -8 -235 -42 -60 -20
-164 -63 -230 -95 -98 -48 -135 -73 -202 -135 -45 -42 -102 -107 -127 -144
-83 -124 -171 -215 -313 -321 -158 -117 -293 -164 -591 -205 -89 -13 -115 -13
-182 -1 -165 29 -245 65 -431 191 -139 94 -202 146 -392 327 -82 78 -158 148
-170 156 -12 8 -55 42 -96 75 -41 34 -85 68 -97 76 -12 8 -63 44 -114 79 -158
108 -275 148 -412 137 -80 -6 -129 -26 -233 -96 -22 -15 -46 -29 -52 -31 -27
-8 -273 -262 -421 -434 -264 -305 -338 -367 -484 -404 -94 -24 -239 -41 -356
-41 -219 0 -301 50 -897 545 -351 292 -385 316 -515 372 -229 100 -352 115
-500 62 -47 -17 -94 -33 -105 -37 -22 -6 -282 -242 -450 -408 -161 -160 -229
-189 -467 -201 -70 -3 -130 -9 -135 -12 -4 -3 -7 -338 -5 -743 l2 -738 5815 0
5815 0 -2 1088 -3 1087 -75 37 c-85 41 -117 48 -180 37z" />
          </g>
        </svg>